<svg width="206" height="206" viewBox="0 0 206 206" fill="none" xmlns="http://www.w3.org/2000/svg">
<path d="M102.54 205.08C45.9088 205.08 0.00012207 159.171 0.00012207 102.54C0.00012207 45.9087 45.9088 0 102.54 0C159.171 0 205.08 45.9087 205.08 102.54C205.08 159.171 159.171 205.08 102.54 205.08Z" fill="#F0EFE6"/>
<path d="M73.2202 63.8798C87.0302 58.4798 94.7102 69.1298 94.7102 69.1298L95.5202 82.7098C91.6506 85.5932 88.9179 89.7453 87.8002 94.4398C85.8002 102.44 95.2102 121.91 97.5202 139.96C99.8302 158.01 81.1702 163.6 81.1702 163.6C81.1702 163.6 53.0802 131.35 54.2402 101.41C54.8202 86.5998 59.4102 69.2798 73.2202 63.8798Z" fill="#424447"/>
<path d="M69.8799 78.6001C72.7099 67.8501 86.3298 64.3901 94.0398 72.0101C94.1889 72.1883 94.2658 72.4159 94.2554 72.648C94.2451 72.8801 94.1482 73.0999 93.9839 73.2641C93.8197 73.4284 93.5999 73.5253 93.3678 73.5356C93.1357 73.5459 92.9081 73.4691 92.7299 73.3201C86.7299 67.3201 77.9698 69.0301 73.2898 75.6401C69.1398 81.5101 70.8699 91.14 71.3899 97.87C72.2199 108.53 74.2099 120.96 64.9999 128.71C64.0899 129.47 62.7799 128.17 63.6899 127.4C77.5399 115.77 65.9299 93.7101 69.8799 78.6001Z" fill="#0B212E"/>
<path d="M75.9298 107.19C76.1698 101.48 75.7398 95.8702 76.9298 90.1902C78.5998 82.0002 86.3198 74.6202 94.9298 78.0702C96.0298 78.5102 95.5498 80.3002 94.4398 79.8602C88.7598 77.5902 83.7598 80.5302 80.7098 85.4202C77.6598 90.3102 77.8297 96.6102 77.8397 102.11C77.8397 111.66 76.3797 119.43 71.1497 127.55C70.4997 128.55 68.8997 127.62 69.5497 126.61C73.4399 120.856 75.6493 114.131 75.9298 107.19V107.19Z" fill="#0B212E"/>
<path d="M149.68 136.6C149.68 136.6 153.14 148.24 157.22 162.6C157.413 163.267 157.603 163.933 157.79 164.6C158.24 166.2 158.71 167.84 159.17 169.49L159.7 171.4C160.96 175.94 162.22 180.56 163.42 185.05C157.358 189.518 150.822 193.304 143.93 196.34L140.81 185.6L149.68 136.6Z" fill="#2E576B"/>
<path d="M54.3002 193.03C49.2102 161.91 38.9302 123.6 38.9302 123.6C38.9302 123.6 52.2902 121.85 65.9302 119.06C68.7002 118.48 71.4902 117.87 74.1702 117.22C76.6102 116.64 78.9602 116.02 81.1702 115.38C84.6988 114.441 88.1179 113.13 91.3702 111.47C93.2602 110.41 94.4602 109.3 94.7202 108.18C96.6102 99.8399 97.5302 80.3999 97.5302 80.3999L121.93 93.9699C121.09 95.9699 118.2 104.31 118.39 110.22C118.408 110.772 118.458 111.323 118.54 111.87C118.611 112.31 118.715 112.745 118.85 113.17C119.949 116.19 121.712 118.924 124.01 121.17C126.442 123.769 129.287 125.949 132.43 127.62C133.13 127.96 133.91 128.36 134.76 128.8C135.61 129.24 136.36 129.61 137.2 130.05C142.89 132.98 149.71 136.56 149.71 136.56C149.71 136.56 153.11 153.56 146.01 181.01C144.37 187.33 142.73 192.74 141.17 197.55C127.247 203.199 112.253 205.722 97.2479 204.941C82.2426 204.16 67.5918 200.094 54.3302 193.03H54.3002Z" fill="#393A3D"/>
<path d="M91.3602 111.47C93.2502 110.41 94.4502 109.3 94.7102 108.18C96.6002 99.8399 97.5202 80.3999 97.5202 80.3999L121.93 93.9699C121.09 95.9699 118.2 104.31 118.39 110.22C118.408 110.772 118.458 111.323 118.54 111.87C118.611 112.31 118.715 112.745 118.85 113.17C119.949 116.19 121.712 118.924 124.01 121.17C126.442 123.769 129.287 125.949 132.43 127.62C133.13 127.96 133.91 128.36 134.76 128.8C135.61 129.24 136.36 129.61 137.2 130.05L135.7 136.56L119.15 150.41L88.4602 144.18L74.2102 117.18C76.6502 116.6 79.0002 115.98 81.2102 115.34C84.7201 114.41 88.1222 113.113 91.3602 111.47V111.47Z" fill="#FA9778"/>
<path d="M118.4 110.8L100.55 87.4399L119.98 98.4399L118.4 110.8Z" fill="#0B212E"/>
<path d="M27.3303 172.21C28.0403 169.01 28.7902 165.69 29.5602 162.33L29.9802 160.53C30.4602 158.45 30.9436 156.38 31.4302 154.32C31.5702 153.71 31.7202 153.11 31.8602 152.51C35.5102 137.1 38.9302 123.6 38.9302 123.6C45.6202 132.48 54.2603 192.66 54.2603 192.66L54.0002 192.87C44.0321 187.501 35.0205 180.52 27.3303 172.21Z" fill="#2E576B"/>
<path d="M42.3802 157.6C42.5937 157.725 42.7489 157.929 42.8117 158.168C42.8745 158.407 42.8398 158.662 42.7151 158.875C42.5905 159.089 42.3861 159.244 42.147 159.307C41.9079 159.369 41.6537 159.335 41.4402 159.21C38.2363 157.342 34.8931 155.724 31.4402 154.37C31.5802 153.76 31.7302 153.16 31.8702 152.56C35.4977 153.968 39.0115 155.653 42.3802 157.6V157.6Z" fill="#0B212E"/>
<path d="M29.9298 160.53L41.9298 161.75C43.0998 161.87 43.1098 163.75 41.9298 163.6L29.5198 162.33L29.9298 160.53Z" fill="#0B212E"/>
<path d="M46.1699 184.68C47.2599 185.12 46.7899 186.91 45.6799 186.46C45.2399 186.29 43.9999 185.95 42.3099 185.46C40.8166 184.38 39.3566 183.26 37.9299 182.1C40.7357 182.759 43.4896 183.621 46.1699 184.68Z" fill="#0B212E"/>
<path d="M81.16 115.38C82.63 120.2 84.86 125.77 87.96 129.31C94.44 136.72 103.96 145.52 115.11 141.31C123.11 138.31 124.11 127.14 123.98 121.13C126.412 123.73 129.257 125.909 132.4 127.58C133.1 127.92 133.88 128.32 134.73 128.76L122.64 203.06C106.443 206.288 89.7061 205.561 73.85 200.94L65.93 119.06C71.23 117.96 76.55 116.73 81.16 115.38Z" fill="#F9F8EF"/>
<path d="M117.74 190.09C119.74 182.58 121.8 175.45 122.74 169.36C124.88 155.72 120.32 123.16 118.81 113.18C119.909 116.2 121.672 118.934 123.97 121.18C126.402 123.78 129.247 125.959 132.39 127.63L133.97 128.43L134.72 128.81L136.17 129.54C142.03 132.54 149.67 136.54 149.67 136.54C149.67 136.54 153.07 153.54 145.97 180.99C144.33 187.31 142.69 192.72 141.13 197.53C132.521 201.029 123.474 203.334 114.24 204.38C115.06 200.38 116.06 196.38 117.1 192.45L117.74 190.09Z" fill="#2E576B"/>
<path d="M38.9301 123.6C38.9301 123.6 52.2901 121.85 65.9301 119.06C69.4201 118.33 72.93 117.55 76.24 116.71C76.94 116.54 77.62 116.36 78.3 116.18C79.3 115.92 80.23 115.65 81.15 115.38C84.6786 114.441 88.0977 113.13 91.35 111.47C92.08 123.19 93.72 155.3 91.73 184.54C91.73 185.29 91.6301 186.04 91.5801 186.79C91.4201 188.94 91.23 191.09 91.03 193.2C90.65 197.11 90.2501 200.79 89.8101 204.27C77.3807 202.735 65.34 198.925 54.29 193.03C49.21 161.91 38.9301 123.6 38.9301 123.6Z" fill="#2E576B"/>
<path d="M78.3098 116.18C77.2635 120.161 76.462 124.202 75.9097 128.28C79.4097 128 82.9097 127.77 86.4097 127.59C87.6097 127.53 87.5997 129.38 86.4097 129.44C82.8297 129.62 79.2397 129.86 75.6697 130.15C73.2297 150.52 76.3697 173.93 91.7397 184.54C91.7397 185.29 91.6397 186.04 91.5897 186.79C71.3597 173.67 70.3298 140.24 76.2498 116.71C76.9298 116.54 77.6298 116.36 78.3098 116.18Z" fill="#0B212E"/>
<path d="M118.22 203.89C116.86 204.1 115.48 204.26 114.1 204.42L114.57 202.86L118.22 203.89Z" fill="#2E576B"/>
<path d="M79.0001 121.29L89.79 204.29C72.747 202.187 56.5133 195.805 42.6 185.74L34.7101 131.2L79.0001 121.29Z" fill="#B74F46"/>
<path d="M79.0001 121.29L89.79 204.29C87.26 203.98 84.7401 203.6 82.2701 203.1L71.2701 123.04L79.0001 121.29Z" fill="#8C3E35"/>
<path d="M60.4899 172.21L68.3599 187.95C68.3599 187.95 65.6499 191.57 61.6299 196.57C56.4131 194.3 51.3956 191.597 46.6299 188.49C54.0199 182.72 60.4899 172.21 60.4899 172.21Z" fill="#2E576B"/>
<path d="M118.22 203.89C116.86 204.1 115.48 204.26 114.1 204.42L114.57 202.86L118.22 203.89Z" fill="#FA9778"/>
<path d="M60.4899 172.21L68.3599 187.95C68.3599 187.95 65.6499 191.57 61.6299 196.57C56.4131 194.3 51.3956 191.597 46.6299 188.49C54.0199 182.72 60.4899 172.21 60.4899 172.21Z" fill="#FA9778"/>
<path d="M98.9898 195.6C100.99 196.3 114.57 202.87 114.57 202.87L114.41 204.39C102.118 205.835 89.667 205.039 77.6598 202.04C79.6215 200.51 81.6976 199.133 83.8698 197.92C88.7298 194.98 96.9898 194.9 98.9898 195.6Z" fill="#FA9778"/>
<path d="M71.6701 158.09C72.8301 157.86 80.6701 158.17 81.1701 158.87C81.4446 159.347 81.6627 159.853 81.8201 160.38C81.9401 160.75 82.0101 161.03 82.0101 161.03C82.0101 161.03 82.5801 160.96 83.3401 160.92C84.7101 160.86 86.7001 160.87 87.2401 161.42C87.8844 162.016 88.2985 162.82 88.4101 163.69V163.69C88.4182 163.849 88.3941 164.008 88.3391 164.158C88.2841 164.307 88.1994 164.444 88.0901 164.56C87.3201 165.34 86.7001 166.03 86.7001 166.03C86.7542 166.124 86.8143 166.214 86.8801 166.3C87.3951 167.091 87.7516 167.974 87.9301 168.9C87.9577 169.591 87.8134 170.278 87.5101 170.9C87.3631 171.225 87.1926 171.54 87.0001 171.84C87.1178 171.992 87.2121 172.16 87.2801 172.34C87.462 172.819 87.5502 173.328 87.5401 173.84C87.3425 175.067 86.9114 176.245 86.2701 177.31V177.31C86.0701 177.68 85.9201 177.92 85.9201 177.92C85.9201 177.92 86.1601 178.13 86.4801 178.45C87.3668 179.217 88.0301 180.208 88.4001 181.32C88.6201 182.79 82.8401 188.18 81.1401 188.88C79.4401 189.58 68.3301 187.95 68.3301 187.95L60.4601 172.21C61.4108 169.551 62.516 166.95 63.7701 164.42C65.0401 162.34 70.5101 158.32 71.6701 158.09Z" fill="#FA9778"/>
<path d="M89.8102 52.6C91.6602 44.42 96.6002 37.6 112.33 36.4C117.092 35.9574 121.886 36.799 126.212 38.8374C130.538 40.8757 134.24 44.0362 136.93 47.9901C137.793 49.2038 138.546 50.4922 139.18 51.84C139.95 53.51 140.56 57.2 140.87 61.84C140.94 62.78 140.98 63.7401 141.02 64.7401C141.43 75.7401 140.19 90.19 135.66 96C127.6 106.34 110.94 99.08 106.15 94.46C103.317 91.7421 100.97 88.5596 99.2102 85.05C93.9702 87.36 92.4202 81.34 90.4102 76.4C88.4802 71.64 89.7102 69.33 89.7902 69.16C88.7185 63.6914 88.7253 58.0661 89.8102 52.6V52.6Z" fill="#FA9778"/>
<path d="M89.0602 58.0396C89.1582 56.2184 89.4091 54.4087 89.8102 52.6296C89.9102 52.1596 90.0302 51.6996 90.1602 51.2396C90.3302 50.6296 90.5102 50.0396 90.7302 49.4496C91.7239 46.5546 93.4703 43.9763 95.7902 41.9796C96.4644 41.414 97.1798 40.8992 97.9302 40.4396C98.9397 39.8112 100.004 39.2757 101.11 38.8396C102.487 38.2707 103.909 37.8159 105.36 37.4796C107.662 36.9442 110.003 36.5931 112.36 36.4296C116.709 36.0316 121.089 36.6868 125.13 38.3396C127.231 39.2229 129.207 40.376 131.01 41.7696C133.31 43.5346 135.333 45.6346 137.01 47.9996C135.573 47.6003 134.077 47.4581 132.59 47.5796V47.5796C131.68 47.6996 131.49 47.9996 131.49 47.9996C131.49 47.9996 130.16 46.1496 126.2 45.4796C124.313 45.1894 122.395 45.1625 120.5 45.3996C115.87 45.8996 113.5 46.9496 112.06 48.3996C111.45 49.016 110.961 49.7421 110.62 50.5396C110.32 51.1996 110.07 51.9096 109.81 52.6496C109.315 54.308 109.142 56.046 109.3 57.7696C109.3 58.4496 109.39 59.0796 109.46 59.6196C109.62 60.7996 109.81 61.6196 109.81 61.6196C106.894 62.8003 104.412 64.8497 102.7 67.4896C101.287 69.7768 100.247 72.2749 99.6202 74.8896C99.6202 74.8896 96.1102 63.8896 89.9002 69.1796C89.3021 66.1371 89.0273 63.0399 89.0803 59.9396C88.9903 59.2896 89.0202 58.6796 89.0602 58.0396Z" fill="#424447"/>
<path d="M111.93 48.3701C111.32 48.9866 110.831 49.7126 110.49 50.5101C103.764 51.6689 96.9115 51.9111 90.1202 51.2301C90.2902 50.6201 90.4702 50.0301 90.6902 49.4401C97.7847 50.1095 104.939 49.7491 111.93 48.3701V48.3701Z" fill="#0B212E"/>
<path d="M109.21 57.7402C109.21 58.4202 109.3 59.0502 109.37 59.5902C102.77 61.4702 95.8601 61.0102 88.9901 59.8902C88.9901 59.2902 88.9901 58.6802 89.0601 58.0402C95.8401 59.1802 102.69 59.7002 109.21 57.7402Z" fill="#0B212E"/>
<path d="M120.16 42.0697C123.98 42.7497 129.63 44.2897 132.51 47.5697C131.6 47.6897 131.41 47.9897 131.41 47.9897C131.41 47.9897 130.08 46.1397 126.12 45.4697C122.678 44.3154 119.115 43.5604 115.5 43.2197C109.11 42.4497 102.63 42.7897 96.2402 42.1197C96.0838 42.1049 95.9331 42.0536 95.8002 41.9697C96.4744 41.4041 97.1898 40.8893 97.9402 40.4297C105.35 41.0497 112.81 40.7297 120.16 42.0697Z" fill="#0B212E"/>
<path d="M125.1 38.3307C127.2 39.2141 129.177 40.3671 130.98 41.7607C126.5 40.3613 121.851 39.5709 117.16 39.4107C111.76 39.1107 106.46 39.6607 101.11 38.8307C102.487 38.2619 103.908 37.807 105.36 37.4707C111.74 37.9707 118.65 37.4607 125.1 38.3307Z" fill="#0B212E"/>
<path d="M117.05 83.53C117.818 84.9105 118.917 86.0779 120.249 86.9265C121.582 87.7751 123.105 88.2781 124.68 88.39C125.86 88.47 125.87 90.32 124.68 90.24C122.782 90.1213 120.944 89.5304 119.332 88.5211C117.72 87.5117 116.386 86.1158 115.45 84.46C115.355 84.2501 115.341 84.0123 115.411 83.7926C115.481 83.573 115.63 83.3873 115.83 83.2715C116.029 83.1556 116.264 83.1179 116.49 83.1657C116.715 83.2135 116.915 83.3433 117.05 83.53Z" fill="#0B212E"/>
<path d="M125.79 67.0102C126.79 67.1602 127.4 69.0102 127.08 71.1802C126.76 73.3502 125.67 74.9502 124.64 74.8002C123.61 74.6502 123.04 72.8002 123.35 70.6302C123.66 68.4602 124.76 66.8602 125.79 67.0102Z" fill="#0B212E"/>
<path d="M138.93 68.0202C139.72 68.1402 140.12 69.8602 139.82 71.8702C139.52 73.8802 138.65 75.4102 137.82 75.2902C136.99 75.1702 136.64 73.4502 136.93 71.4502C137.22 69.4502 138.18 67.9102 138.93 68.0202Z" fill="#0B212E"/>
<path d="M128.88 81.35C131.27 82.75 134.88 81.23 133.88 78.1C133.5 76.97 135.29 76.49 135.67 77.61C135.957 78.5158 135.968 79.4867 135.701 80.3987C135.434 81.3107 134.901 82.1223 134.17 82.73C133.283 83.3919 132.215 83.7676 131.109 83.8069C130.003 83.8463 128.912 83.5473 127.98 82.95C127.807 82.8122 127.69 82.6176 127.648 82.401C127.605 82.1844 127.642 81.9598 127.75 81.7674C127.858 81.575 128.031 81.4274 128.238 81.351C128.445 81.2745 128.673 81.2741 128.88 81.35Z" fill="#0B212E"/>
<path d="M118.06 59.76C119.898 59.0122 121.884 58.7016 123.863 58.8526C125.841 59.0035 127.757 59.612 129.46 60.6299C129.618 60.7225 129.756 60.8453 129.866 60.9911C129.976 61.1369 130.056 61.303 130.102 61.4799C130.148 61.6568 130.159 61.841 130.134 62.0221C130.108 62.2031 130.048 62.3774 129.955 62.5349C129.863 62.6925 129.74 62.8303 129.594 62.9405C129.448 63.0507 129.282 63.131 129.105 63.177C128.928 63.2229 128.744 63.2336 128.563 63.2084C128.382 63.1832 128.208 63.1225 128.05 63.0299C126.739 62.248 125.268 61.7735 123.747 61.6418C122.227 61.5102 120.696 61.725 119.27 62.27C119.124 62.3499 118.965 62.404 118.8 62.4299V62.4299H118.67H118.43C116.73 62.6499 116.74 60.29 118.06 59.76Z" fill="#0B212E"/>
<path d="M136.81 62.1401C138.106 61.639 139.521 61.5278 140.88 61.8201C140.95 62.7601 140.99 63.7201 141.03 64.7201C139.894 64.3228 138.651 64.3585 137.54 64.8201C135.87 65.4701 135.16 62.7901 136.81 62.1401Z" fill="#0B212E"/>
<path d="M104.43 179.97C104.5 179.794 104.633 179.651 104.804 179.57C104.974 179.488 105.169 179.474 105.35 179.53L114.07 172.24C114.98 171.48 116.3 172.78 115.38 173.55L105.6 181.72C105.44 181.875 105.229 181.968 105.006 181.981C104.783 181.994 104.563 181.926 104.386 181.79C104.209 181.654 104.087 181.46 104.042 181.241C103.997 181.023 104.031 180.795 104.14 180.6L104.43 179.97Z" fill="#0B212E"/>
<path d="M107.66 171.4C108.52 170.56 109.83 171.87 108.97 172.7L101.62 179.86C100.76 180.69 99.4501 179.39 100.31 178.55L107.66 171.4Z" fill="#0B212E"/>
<path d="M148.6 155.92C148.51 154.73 150.82 164.62 150.47 168.92L157.22 162.6C157.413 163.267 157.603 163.934 157.79 164.6L150.37 171.53C150.317 171.573 150.26 171.61 150.2 171.64C150.01 173.25 149.78 174.84 149.49 176.43C149.636 176.419 149.783 176.439 149.92 176.49C150.41 176.11 151.92 175 152.29 174.72C153.477 173.86 154.657 172.984 155.83 172.09C156.96 171.24 158.07 170.37 159.17 169.49L159.7 171.4C158.44 172.4 157.167 173.4 155.88 174.4C154.42 175.51 150.79 177.68 149.3 178.74C148.58 179.26 143.56 190.86 143.12 191.84C147.754 180.467 149.632 168.158 148.6 155.92Z" fill="#0B212E"/>
<path d="M88.77 202.44C87.61 202.81 86.46 203.21 85.31 203.61L83.5299 203.29C85.1799 202.68 86.8399 202.09 88.5299 201.55C88.648 201.518 88.7738 201.535 88.8798 201.596C88.9857 201.657 89.0631 201.757 89.0949 201.875C89.1268 201.993 89.1104 202.119 89.0495 202.225C88.9885 202.331 88.888 202.408 88.77 202.44V202.44Z" fill="#0B212E"/>
<path d="M81.6501 168.39C83.7401 167.39 86.9901 165.83 88.4301 163.7C88.4382 163.859 88.4141 164.018 88.3591 164.168C88.3041 164.317 88.2194 164.454 88.1101 164.57C87.3401 165.35 86.7201 166.04 86.7201 166.04C86.7741 166.134 86.8343 166.224 86.9001 166.31C86.4901 166.61 86.0801 166.89 85.6601 167.17C84.293 168.069 82.8588 168.861 81.3701 169.54C80.2701 170.05 78.0101 170.37 77.3701 171.41C77.0501 171.92 76.2501 171.41 76.5701 170.94C77.5101 169.43 80.1501 169.09 81.6501 168.39Z" fill="#0B212E"/>
<path d="M70.1899 163.6C74.1899 162.98 77.9399 161.46 81.8199 160.36C81.9399 160.73 82.0099 161.01 82.0099 161.01C82.0099 161.01 82.5798 160.94 83.3398 160.9C79.0098 162.01 74.8699 163.8 70.4299 164.49C69.8499 164.6 69.5999 163.71 70.1899 163.6Z" fill="#0B212E"/>
<path d="M79.6801 176.4C81.3506 175.712 82.8977 174.757 84.2601 173.57C85.4335 172.78 86.5315 171.882 87.54 170.89C87.393 171.215 87.2226 171.53 87.03 171.83C87.1477 171.982 87.2421 172.15 87.3101 172.33C86.6601 172.91 85.9701 173.42 85.3101 173.9C83.7057 175.335 81.8653 176.482 79.8701 177.29C79.3601 177.48 79.1201 176.6 79.6801 176.4Z" fill="#0B212E"/>
<path d="M79.81 182.65C79.8474 182.564 79.914 182.493 79.9981 182.451C80.0822 182.409 80.1785 182.398 80.27 182.42C82.4793 180.979 84.4956 179.262 86.27 177.31C86.07 177.68 85.92 177.92 85.92 177.92C85.92 177.92 86.16 178.13 86.48 178.45C84.6365 180.388 82.5608 182.091 80.3 183.52C79.88 183.78 79.47 183.28 79.67 182.88C79.74 182.8 79.77 182.72 79.81 182.65Z" fill="#0B212E"/>
<path d="M86.7202 181.17L82.4802 181.57L86.5103 178.45L86.7202 181.17Z" fill="#0B212E"/>
<path d="M136.14 139.79H136.06C133.17 138.16 130.25 136.58 127.3 135.08C126.24 134.53 127.18 132.94 128.23 133.48C130.8 134.79 133.33 136.15 135.84 137.55C135.376 134.487 134.755 131.45 133.98 128.45L134.73 128.83L136.18 129.56C141.56 151.9 139.35 182.17 117.11 192.5L117.74 190.12C134.83 181.14 138.53 159.08 136.14 139.79Z" fill="#0B212E"/>
</svg>
