<svg width="206" height="208" viewBox="0 0 206 208" fill="none" xmlns="http://www.w3.org/2000/svg">
<path d="M102.54 208C159.171 208 205.08 162.091 205.08 105.46C205.08 48.8287 159.171 2.91992 102.54 2.91992C45.9087 2.91992 0 48.8287 0 105.46C0 162.091 45.9087 208 102.54 208Z" fill="#F0EFE6"/>
<path d="M129.33 68.4703C129.812 72.9307 129.812 77.43 129.33 81.8903C129.142 83.9119 128.808 85.9172 128.33 87.8903L125.12 88.0203H124.97L84.9697 89.5703L71.4697 90.0803L68.9297 77.5703L68.6797 76.3703L68.0298 73.2603L67.7298 72.0003L67.2798 69.8303L64.4798 56.4503L64.2197 55.2003L63.9897 54.1003C66.2042 50.8435 68.7992 47.8625 71.7197 45.2203C72.0797 44.9103 72.4397 44.5803 72.8197 44.2903C73.8773 43.4123 75.0006 42.6166 76.1797 41.9103C78.685 40.4549 81.3155 39.2267 84.0397 38.2403C84.6497 38.0003 85.2398 37.8003 85.7798 37.6303C87.349 37.0989 88.9444 36.6483 90.5598 36.2803L83.3698 31.9003C87.1724 30.0048 91.2598 28.7448 95.4697 28.1703L96.7798 28.0103C99.4354 27.6988 102.116 27.6586 104.78 27.8903C105.22 27.8903 105.67 27.9603 106.11 28.0203C107.04 28.1203 108.01 28.2703 108.97 28.4603C113.209 29.4039 117.16 31.3519 120.49 34.1403L121.57 35.0403C122.86 36.1454 124.085 37.3241 125.24 38.5703C125.56 38.9003 125.88 39.2503 126.18 39.5703C126.18 39.5703 126.18 39.5703 126.23 39.5703C127.921 41.4942 129.491 43.5214 130.93 45.6403C131.18 46.0103 131.42 46.3603 131.63 46.6903C132.55 48.1303 133.04 49.0303 133.04 49.0303L127.41 52.7803C127.41 52.7803 128.08 57.2103 129.33 68.4703Z" fill="#1A4559"/>
<path d="M96.9398 65.9299L84.9898 89.53L71.4898 90.0399L68.8898 77.57L68.6398 76.3699L67.9898 73.2599L67.7298 72L67.2798 69.82L83.7598 57.96L96.9398 65.9299Z" fill="#0B212E"/>
<path d="M129.33 68.4698C129.812 72.9302 129.812 77.4295 129.33 81.8898L125.13 87.9798L125.04 88.0999L124.98 87.9798L110.06 57.5898L127.9 46.5898L126.22 39.5898C127.911 41.5137 129.481 43.541 130.92 45.6599C131.17 46.0299 131.41 46.3799 131.62 46.7099C132.54 48.1499 133.03 49.0499 133.03 49.0499L127.4 52.7999C127.4 52.7999 128.08 57.2098 129.33 68.4698Z" fill="#0B212E"/>
<path d="M126.22 39.5798C124.523 42.7303 122.351 45.6006 119.78 48.0898C115.611 52.3492 110.905 56.047 105.78 59.0898C105.639 59.1582 105.477 59.1707 105.328 59.1249C105.178 59.079 105.051 58.9783 104.973 58.8428C104.894 58.7074 104.87 58.5473 104.905 58.3946C104.939 58.242 105.03 58.1081 105.16 58.0199C109.909 55.2411 114.278 51.8597 118.16 47.9599C120.91 45.1399 123.62 42.1298 125.28 38.5898C125.6 38.8898 125.93 39.2398 126.22 39.5798Z" fill="#0B212E"/>
<path d="M121.61 34.9996C118.96 44.2896 110.52 52.2196 103.53 58.1796C102.92 58.7096 102.03 57.8296 102.64 57.3096C109.64 51.3096 118.1 43.4396 120.53 34.0996L121.61 34.9996Z" fill="#0B212E"/>
<path d="M106.73 42.1799C105.961 47.8949 103.858 53.3486 100.59 58.0999C100.14 58.7599 99.0598 58.0999 99.5098 57.4599C102.509 53.1338 104.507 48.1943 105.36 42.9999C105.838 40.1091 105.962 37.1708 105.73 34.2499C105.682 32.0978 105.377 29.9592 104.82 27.8799C105.26 27.8799 105.71 27.9499 106.15 28.0099C106.447 29.4187 106.654 30.8449 106.77 32.2799C107.172 35.5685 107.158 38.8946 106.73 42.1799Z" fill="#0B212E"/>
<path d="M97.9298 58.6002C97.6198 59.2902 96.6598 58.7602 96.8198 58.0902C96.7326 58.1742 96.6227 58.2308 96.5037 58.2531C96.3847 58.2753 96.2618 58.2622 96.1501 58.2154C96.0385 58.1687 95.943 58.0902 95.8754 57.9898C95.8078 57.8893 95.7711 57.7713 95.7698 57.6502C95.7698 51.7202 95.4398 45.9302 90.2198 42.2202C88.2341 40.7705 86.1674 39.435 84.0298 38.2202C84.6398 37.9802 85.2298 37.7802 85.7698 37.6102C88.1841 38.9266 90.4247 40.5391 92.4398 42.4102C96.7598 46.4602 97.0398 51.9402 97.0198 57.5702C99.0429 52.8775 99.9547 47.7808 99.6841 42.6776C99.4135 37.5745 97.9679 32.6028 95.4598 28.1502L96.7698 27.9902C99.3109 32.6573 100.738 37.849 100.939 43.1592C101.14 48.4694 100.11 53.7542 97.9298 58.6002V58.6002Z" fill="#0B212E"/>
<path d="M87.0397 57.4999C82.6097 56.1399 76.9197 56.6999 72.2897 56.5799C69.6897 56.4999 67.0897 56.4599 64.4797 56.4399L64.2197 55.1899C67.3197 55.1899 70.4297 55.2799 73.5297 55.3599C77.9297 55.4999 83.1197 54.9899 87.3797 56.2999C88.1397 56.5399 87.8097 57.7399 87.0397 57.4999Z" fill="#0B212E"/>
<path d="M90.4297 57.7098C88.3597 53.1498 83.6897 50.8098 79.4297 48.7098C76.9031 47.4365 74.3397 46.2765 71.7397 45.2298C72.0997 44.9198 72.4598 44.5898 72.8398 44.2998C75.6398 45.4465 78.3798 46.7231 81.0598 48.1298C85.2198 50.3198 89.5098 52.6298 91.5298 57.1298C91.8398 57.8098 90.7597 58.4498 90.4297 57.7098Z" fill="#0B212E"/>
<path d="M86.84 64.8201C80.44 67.3734 74.1566 70.1867 67.99 73.2601L67.73 72.0001C73.87 68.9468 80.13 66.1501 86.51 63.6101C87.26 63.3001 87.58 64.5201 86.84 64.8201Z" fill="#1A4559"/>
<path d="M87.5401 70.83C82.8401 72.83 78.0801 74.61 73.2501 76.18C71.7901 76.66 70.3401 77.12 68.8901 77.57L68.6401 76.37L69.5601 76.06C71.4201 75.47 73.2801 74.87 75.1301 74.23C79.2101 72.82 83.2201 71.28 87.2101 69.63C87.9301 69.32 88.2801 70.53 87.5401 70.83Z" fill="#1A4559"/>
<path d="M131.67 46.7502C126.501 51.2993 121.05 55.5177 115.35 59.3802C114.67 59.8402 114.05 58.7502 114.71 58.3002C120.385 54.4575 125.803 50.2486 130.93 45.7002C131.22 46.0702 131.46 46.4202 131.67 46.7502Z" fill="#1A4559"/>
<path d="M44.7299 190.14C41.4447 187.895 38.2927 185.461 35.2899 182.85C34.9999 182.6 34.6999 182.34 34.4199 182.07C33.8399 174.55 33.4199 169.33 33.4199 168.31V168.14C33.4199 168.14 37.2999 166.76 42.5999 164.61L44.5299 163.83L46.5299 162.99C46.9999 162.78 47.4799 162.58 47.9699 162.38C51.3499 160.91 54.9699 159.31 58.2899 157.61L58.5599 157.49C59.1399 157.21 59.6799 156.91 60.2299 156.63L62.0999 155.63C64.2366 154.494 66.2916 153.211 68.2499 151.79C69.3472 151.016 70.3536 150.12 71.2499 149.12C73.3599 146.6 74.5399 140.29 75.1499 132.89C75.8499 124.73 75.8499 115.25 75.7099 108.07C75.7099 106.72 75.6499 105.44 75.6199 104.27C75.6302 104.14 75.6302 104.01 75.6199 103.88C75.6199 103.56 75.6199 103.23 75.6199 102.88C75.6199 102.53 75.6199 102.44 75.6199 102.24C75.6199 101.85 75.6199 101.49 75.6199 101.13C75.5199 98.4799 75.4299 96.8799 75.4299 96.8799L113.24 100.17L117.08 100.49L122.31 100.94C122.31 100.94 122.44 106.8 122.53 114.48C122.53 115.21 122.53 115.95 122.53 116.71C122.53 117.47 122.53 118.24 122.53 119.02C122.53 119.8 122.53 120.59 122.53 121.38C122.53 122.17 122.53 122.97 122.53 123.78C122.53 125.78 122.53 127.85 122.53 129.86C122.53 130.86 122.53 131.86 122.61 132.86C122.693 135.772 123.191 138.658 124.09 141.43C124.56 142.881 125.233 144.258 126.09 145.52C127.66 147.735 129.738 149.542 132.15 150.79C132.56 151.04 132.99 151.27 133.44 151.49C133.89 151.71 134.33 151.93 134.82 152.13C134.876 152.168 134.936 152.198 135 152.22C135.84 152.6 137.06 153.08 138.55 153.64C141.67 154.78 145.99 156.27 150.77 157.86C151.39 158.08 152.03 158.27 152.67 158.49C159.49 160.74 167.06 163.16 173.33 165.12C173.79 165.28 174.24 165.42 174.68 165.56C176.92 166.26 179 166.9 180.74 167.46L181.85 167.8L183.03 168.16C183.22 168.22 183.37 168.28 183.54 168.35C174.104 180.485 162.065 190.347 148.31 197.21C147.42 197.67 146.53 198.1 145.63 198.51C138.879 201.648 131.798 204.023 124.52 205.59C117.303 207.19 109.932 207.998 102.54 208C101.64 208 100.72 208 99.8199 208C81.7065 207.537 64.0424 202.263 48.6399 192.72C47.3199 191.87 46.0099 191 44.7299 190.14Z" fill="#F0EFE6"/>
<path d="M104.83 163.69L98.83 174.45L99.83 207.96C95.7458 207.852 91.6718 207.498 87.63 206.9L91.51 173.56L85.2 163.34L84.02 161.43L85.54 159.64C85.62 159.54 85.71 159.45 85.79 159.36L95.71 147.72C95.814 147.834 95.9109 147.954 96 148.08L106.11 161.43L104.83 163.69Z" fill="#FA9778"/>
<path d="M126.4 155.87C121.4 159.64 118.12 166.59 112.94 170.06C106.75 162.23 95.3198 147.11 95.6998 147.71C90.4098 154.23 83.5398 161.9 77.9498 168.16C73.5798 165.07 71.9498 157.25 68.4198 153.3C67.3498 152.09 65.5898 153.86 66.6498 155.07C70.4098 159.33 78.1698 171 78.4098 170.89C78.4098 170.89 90.4098 157.74 95.6998 151.18C100.49 158.52 112.35 173.48 112.95 173.07C118.43 169.43 122.42 162 127.66 158.07C128.93 157.07 127.69 154.9 126.4 155.87Z" fill="#0B212E"/>
<path d="M122.53 132.88L110.53 139.48L95.66 147.71L75.04 132.88C76.36 117.3 75.21 96.8799 75.21 96.8799L122.14 101C122.14 101 122.26 106.87 122.35 114.54C122.41 119.3 122.45 124.74 122.45 129.93C122.45 130.94 122.48 131.94 122.53 132.88Z" fill="#FA9778"/>
<path d="M124 141.46C116.126 141.219 108.363 139.545 101.09 136.52C88.8497 131.46 79.4697 118.8 79.4697 118.8L122.35 114.52C122.41 119.28 122.45 124.72 122.45 129.91C122.45 130.91 122.45 131.91 122.53 132.91C122.616 135.815 123.111 138.693 124 141.46V141.46Z" fill="#0B212E"/>
<path d="M74.3098 85.8201C74.3098 85.8201 73.0898 78.5001 66.4898 80.6601C58.3598 83.3201 62.8998 97.3901 65.0898 100.36C67.2798 103.33 77.0898 103.64 77.0898 104.42C77.0898 105.2 77.2498 116.93 79.4398 118.8C81.6298 120.67 99.5998 131.62 101.79 131.62C103.98 131.62 114.14 131.78 116.48 130.21C118.82 128.64 127.42 118.21 127.89 115.05C128.36 111.89 129.54 79.7901 129.54 79.7901C128.646 76.5308 128.179 73.1695 128.15 69.7901C128.15 64.4801 126.79 57.2401 123.04 56.4501C120.55 56.6801 119.6 58.9601 112.72 57.9901C107.41 57.5201 95.3298 52.9301 90.0098 54.5001C84.6898 56.0701 81.3098 59.4201 82.0898 63.3301C82.6673 66.9357 83.0346 70.5718 83.1898 74.2201L74.3098 85.8201Z" fill="#FA9778"/>
<path d="M89.8698 126.22C85.8906 124.452 82.4756 121.622 79.9998 118.04C77.6498 114.42 77.7798 108.64 77.8698 104.5C77.8505 104.348 77.7764 104.208 77.6614 104.107C77.5463 104.005 77.3982 103.949 77.2448 103.949C77.0915 103.949 76.9433 104.005 76.8283 104.107C76.7132 104.208 76.6391 104.348 76.6198 104.5C76.5198 109.15 76.7698 114.5 78.9198 118.68C80.9198 122.55 85.4598 125.49 89.2398 127.3C89.9298 127.65 90.5898 126.57 89.8698 126.22Z" fill="#0B212E"/>
<path d="M145.59 198.54C138.839 201.678 131.758 204.053 124.48 205.62C124.76 193.52 125.05 181.87 125.33 171.49C125.33 170.15 125.4 168.86 125.44 167.58C125.51 164.87 125.58 162.24 125.66 159.75C125.66 158.61 125.72 157.49 125.76 156.4C125.85 152.4 125.96 148.78 126.05 145.55C127.62 147.765 129.698 149.572 132.11 150.82C132.52 151.07 132.95 151.3 133.4 151.52C133.85 151.74 134.29 151.96 134.78 152.16C134.836 152.198 134.896 152.228 134.96 152.25C135.8 152.63 137.02 153.11 138.51 153.67C141.63 154.81 145.95 156.3 150.73 157.89C151.35 158.11 151.99 158.3 152.63 158.52C159.45 160.77 167.02 163.19 173.29 165.15C173.75 165.31 174.2 165.45 174.64 165.59C176.88 166.29 178.96 166.93 180.7 167.49L181.81 167.83L182.99 168.19C183.18 168.25 183.33 168.31 183.5 168.38C174.064 180.515 162.025 190.377 148.27 197.24C147.38 197.7 146.49 198.13 145.59 198.54Z" fill="#826B62"/>
<path d="M44.7299 190.14C41.4447 187.895 38.2927 185.461 35.2899 182.85C34.9999 182.6 34.6999 182.34 34.4199 182.07C33.8399 174.55 33.4199 169.33 33.4199 168.31V168.14C33.4199 168.14 37.2999 166.76 42.5999 164.61L44.5299 163.83L46.5299 162.99C50.3199 161.4 54.4599 159.56 58.2899 157.63L58.5599 157.51C59.1399 157.23 59.6799 156.93 60.2299 156.65L62.0999 155.65C64.2366 154.514 66.2916 153.231 68.2499 151.81V153.13C68.2499 154.34 68.2499 155.64 68.2499 156.99C68.2999 161.12 68.3199 165.9 68.3299 171.21C68.3299 172.33 68.3299 173.5 68.3299 174.67C68.3299 182.94 68.3899 192.29 68.3899 202.15C61.4872 199.716 54.8685 196.54 48.6499 192.68C47.3199 191.87 46.0099 191 44.7299 190.14Z" fill="#826B62"/>
<path d="M34.4199 182.07C32.7799 180.64 31.1799 179.13 29.6499 177.55C31.8999 171.77 33.3599 168.14 33.3599 168.14V168.31L35.2699 182.85C34.9999 182.6 34.6999 182.34 34.4199 182.07Z" fill="#826B62"/>
<path d="M102.93 86.1102C102.31 88.6502 100.5 90.3902 98.9301 89.9902C97.3601 89.5902 96.5401 87.2102 97.1701 84.6702C97.8001 82.1302 99.6001 80.3902 101.17 80.7802C102.74 81.1702 103.59 83.5602 102.93 86.1102Z" fill="#0B212E"/>
<path d="M125.09 88.1001C124.54 90.3601 122.97 91.9101 121.57 91.5701C120.17 91.2301 119.48 89.1401 120.02 86.8801C120.56 84.6201 122.14 83.0701 123.54 83.4101C124.94 83.7501 125.63 85.8501 125.09 88.1001Z" fill="#0B212E"/>
<path d="M104.13 70.39H103.93C103.706 70.4019 103.486 70.4527 103.28 70.54C101.86 70.9 100.34 70.93 98.8998 71.35C97.1357 71.8862 95.4755 72.718 93.9898 73.81C92.0398 75.2 93.9098 78.46 95.8898 77.05C97.108 76.1521 98.4571 75.4472 99.8898 74.96C101.45 74.44 103.11 74.54 104.66 74.06C106.59 73.47 106.3 70.27 104.13 70.39Z" fill="#0B212E"/>
<path d="M125.54 75.7302C124.944 75.3672 124.314 75.0625 123.66 74.8202C122.486 74.3833 121.251 74.1368 120 74.0902C117.58 73.9702 117.59 77.7302 120 77.8402C121.04 77.8803 122.06 78.1321 123 78.5802C124.11 79.1102 124.73 80.2202 126.12 80.0402C126.615 80.03 127.087 79.8287 127.438 79.4783C127.788 79.1279 127.99 78.6556 128 78.1602C127.93 77.2902 125.79 75.8902 125.54 75.7302Z" fill="#0B212E"/>
<path d="M118.38 94.6098C118.08 93.0298 115.67 93.6998 115.97 95.2798C116.138 96.2005 116.004 97.1507 115.59 97.9899C115.176 98.8291 114.503 99.5127 113.67 99.9398C111.78 101.02 108.75 100.04 106.67 99.8898C105.06 99.7598 105.07 102.26 106.67 102.39C109.82 102.63 113.04 103.52 115.82 101.51C116.857 100.721 117.649 99.6532 118.102 98.4315C118.555 97.2098 118.652 95.8843 118.38 94.6098V94.6098Z" fill="#0B212E"/>
<path d="M95.25 108.72C95.25 108.72 111.25 108.55 115.16 108.72C117.385 108.797 119.587 109.191 121.7 109.89C121.7 109.89 119.95 117.24 110.1 115.75C104.09 114.84 95.25 108.72 95.25 108.72Z" fill="white"/>
<path d="M64.46 86.5202C64.46 86.5202 65.01 83.5202 67.9 83.9402C70.79 84.3602 71.81 91.3802 71.81 91.3802L64.46 86.5202Z" fill="#0B212E"/>
<path d="M70.8498 90.75C70.8498 90.75 68.4698 91.08 68.5198 92.7C68.5698 94.32 71.1298 95.82 71.1298 95.82L70.8498 90.75Z" fill="#0B212E"/>
<path d="M68.3199 174.67C61.9684 180.686 55.0266 186.046 47.5999 190.67C47.9399 191.32 48.2799 191.99 48.5999 192.67C47.2799 191.86 45.9699 191.02 44.6899 190.13C44.6975 189.927 44.7553 189.73 44.8584 189.555C44.9614 189.381 45.1063 189.234 45.2799 189.13C49.3982 186.617 53.3681 183.87 57.1699 180.9L46.7599 176.27C46.6167 176.191 46.491 176.084 46.3903 175.955C46.2895 175.827 46.2159 175.679 46.1739 175.521C46.1318 175.363 46.1222 175.198 46.1456 175.037C46.169 174.875 46.2249 174.719 46.3099 174.58C49.9899 169.14 54.8699 163.58 58.2099 157.63L58.4799 157.51C59.0599 157.23 59.5999 156.93 60.1499 156.65L62.0199 155.65C58.8699 162.38 53.5399 168.6 49.2699 174.65L58.8399 178.89C59.0104 178.964 59.1586 179.081 59.2699 179.23C62.3899 176.71 65.3999 174.01 68.2699 171.23C68.3199 172.33 68.3199 173.5 68.3199 174.67Z" fill="#0B212E"/>
<path d="M142.64 189.7C144.57 192.18 146.77 194.52 148.27 197.24C147.38 197.7 146.49 198.13 145.59 198.54C145.235 197.376 144.662 196.289 143.9 195.34L136.36 185.67L125.36 171.49C125.36 170.15 125.43 168.86 125.47 167.58L135.34 180.26C137.633 177.427 139.927 174.587 142.22 171.74C145.45 167.74 145.48 167.58 142.39 163.63C139.558 160.017 137.024 156.181 134.81 152.16C134.866 152.198 134.926 152.228 134.99 152.25C135.83 152.63 137.05 153.11 138.54 153.67C141.33 158.263 144.573 162.564 148.22 166.51C148.445 166.748 148.57 167.063 148.57 167.39C148.57 167.718 148.445 168.032 148.22 168.27L136.94 182.27C138.79 184.75 140.73 187.23 142.64 189.7Z" fill="#0B212E"/>
</svg>
