<svg width="14" height="14" viewBox="0 0 14 14" fill="none" xmlns="http://www.w3.org/2000/svg">
<g clip-path="url(#clip0)">
<path d="M8.93114 5.07227C8.75004 5.07227 8.60327 5.21904 8.60327 5.40013V11.5969C8.60327 11.7778 8.75004 11.9247 8.93114 11.9247C9.11224 11.9247 9.25901 11.7778 9.25901 11.5969V5.40013C9.25901 5.21904 9.11224 5.07227 8.93114 5.07227Z" fill="black"/>
<path d="M5.06224 5.07227C4.88115 5.07227 4.73438 5.21904 4.73438 5.40013V11.5969C4.73438 11.7778 4.88115 11.9247 5.06224 11.9247C5.24334 11.9247 5.39011 11.7778 5.39011 11.5969V5.40013C5.39011 5.21904 5.24334 5.07227 5.06224 5.07227Z" fill="black"/>
<path d="M2.24248 4.16793V12.2459C2.24248 12.7234 2.41755 13.1717 2.72339 13.4935C3.02782 13.8161 3.45149 13.9992 3.89488 14H10.0982C10.5418 13.9992 10.9654 13.8161 11.2697 13.4935C11.5756 13.1717 11.7506 12.7234 11.7506 12.2459V4.16793C12.3586 4.00656 12.7526 3.41922 12.6712 2.79537C12.5898 2.17165 12.0584 1.70508 11.4293 1.70496H9.75065V1.29512C9.75257 0.950475 9.6163 0.619534 9.37232 0.376066C9.12834 0.132727 8.79689 -0.00277453 8.45224 4.30791e-05H5.54088C5.19623 -0.00277453 4.86478 0.132727 4.6208 0.376066C4.37682 0.619534 4.24055 0.950475 4.24247 1.29512V1.70496H2.56381C1.93472 1.70508 1.40334 2.17165 1.32189 2.79537C1.24056 3.41922 1.63451 4.00656 2.24248 4.16793ZM10.0982 13.3443H3.89488C3.3343 13.3443 2.89821 12.8627 2.89821 12.2459V4.19675H11.0949V12.2459C11.0949 12.8627 10.6588 13.3443 10.0982 13.3443ZM4.89821 1.29512C4.89603 1.1244 4.96314 0.960081 5.0843 0.839564C5.20533 0.719047 5.37003 0.652833 5.54088 0.655779H8.45224C8.62309 0.652833 8.7878 0.719047 8.90882 0.839564C9.02998 0.959953 9.09709 1.1244 9.09491 1.29512V1.70496H4.89821V1.29512ZM2.56381 2.36069H11.4293C11.7553 2.36069 12.0195 2.62491 12.0195 2.95085C12.0195 3.2768 11.7553 3.54102 11.4293 3.54102H2.56381C2.23787 3.54102 1.97365 3.2768 1.97365 2.95085C1.97365 2.62491 2.23787 2.36069 2.56381 2.36069Z" fill="black"/>
<path d="M6.99657 5.07227C6.81547 5.07227 6.6687 5.21904 6.6687 5.40013V11.5969C6.6687 11.7778 6.81547 11.9247 6.99657 11.9247C7.17766 11.9247 7.32444 11.7778 7.32444 11.5969V5.40013C7.32444 5.21904 7.17766 5.07227 6.99657 5.07227Z" fill="black"/>
</g>
<defs>
<clipPath id="clip0">
<rect width="14" height="14" fill="white"/>
</clipPath>
</defs>
</svg>
