<svg width="14" height="14" viewBox="0 0 14 14" fill="none" xmlns="http://www.w3.org/2000/svg">
<g clip-path="url(#clip0)">
<path d="M12.9214 8.79483C12.7289 8.79483 12.5728 8.95091 12.5728 9.1435V12.2393C12.5721 12.8168 12.1042 13.2848 11.5268 13.2854H1.74336C1.16587 13.2848 0.698026 12.8168 0.697345 12.2393V3.15328C0.698026 2.57592 1.16587 2.10794 1.74336 2.10726H4.83919C5.03178 2.10726 5.18787 1.95117 5.18787 1.75858C5.18787 1.56613 5.03178 1.40991 4.83919 1.40991H1.74336C0.780972 1.411 0.0010896 2.19088 0 3.15328V12.2395C0.0010896 13.2019 0.780972 13.9817 1.74336 13.9828H11.5268C12.4892 13.9817 13.269 13.2019 13.2701 12.2395V9.1435C13.2701 8.95091 13.114 8.79483 12.9214 8.79483Z" fill="black"/>
<path d="M13.132 0.512552C12.5192 -0.100213 11.5257 -0.100213 10.913 0.512552L4.69244 6.73309C4.64981 6.77572 4.61903 6.82856 4.60296 6.88658L3.78494 9.83981C3.7513 9.9609 3.78548 10.0906 3.87429 10.1795C3.96323 10.2683 4.09289 10.3025 4.21397 10.269L7.1672 9.45083C7.22522 9.43475 7.27807 9.40397 7.3207 9.36134L13.5411 3.14067C14.1529 2.5275 14.1529 1.53487 13.5411 0.921697L13.132 0.512552ZM5.45217 6.95972L10.5432 1.86856L12.1851 3.51045L7.09393 8.60162L5.45217 6.95972ZM5.1242 7.61784L6.43594 8.92972L4.62148 9.43244L5.1242 7.61784ZM13.0481 2.64763L12.6783 3.01741L11.0362 1.37538L11.4062 1.0056C11.7465 0.665232 12.2984 0.665232 12.6388 1.0056L13.0481 1.41474C13.3879 1.75551 13.3879 2.30699 13.0481 2.64763Z" fill="black"/>
</g>
<defs>
<clipPath id="clip0">
<rect width="14" height="14" fill="white"/>
</clipPath>
</defs>
</svg>
