<svg width="25" height="25" viewBox="0 0 25 25" fill="none" xmlns="http://www.w3.org/2000/svg">
<path d="M20.5275 0H4.47246C2.00635 0 0 2.00635 0 4.47246V20.5276C0 22.9937 2.00635 25 4.47246 25H20.5276C22.9937 25 25 22.9937 25 20.5275V4.47246C25 2.00635 22.9937 0 20.5275 0ZM23.5352 20.5275C23.5352 22.1859 22.1859 23.5352 20.5275 23.5352H4.47246C2.81406 23.5352 1.46484 22.1859 1.46484 20.5275V4.47246C1.46484 2.81406 2.81406 1.46484 4.47246 1.46484H20.5276C22.1859 1.46484 23.5352 2.81406 23.5352 4.47246V20.5275Z" fill="#414040"/>
<path d="M21.1294 5.4916H9.97412C9.66743 4.58071 8.80586 3.92261 7.79287 3.92261C6.77988 3.92261 5.91831 4.58071 5.61162 5.4916H3.87036C3.46587 5.4916 3.13794 5.81953 3.13794 6.22402C3.13794 6.62852 3.46587 6.95644 3.87036 6.95644H5.61167C5.91836 7.86733 6.77993 8.52544 7.79292 8.52544C8.80591 8.52544 9.66748 7.86733 9.97417 6.95644H21.1295C21.534 6.95644 21.8619 6.62852 21.8619 6.22402C21.8619 5.81953 21.534 5.4916 21.1294 5.4916ZM7.79287 7.0606C7.33159 7.0606 6.9563 6.6853 6.9563 6.22402C6.9563 5.76274 7.33159 5.38745 7.79287 5.38745C8.25415 5.38745 8.62944 5.76274 8.62944 6.22402C8.62944 6.6853 8.25415 7.0606 7.79287 7.0606Z" fill="#414040"/>
<path d="M21.1294 11.7676H19.3881C19.0814 10.8567 18.2198 10.1986 17.2069 10.1986C16.1939 10.1986 15.3324 10.8567 15.0257 11.7676H3.87036C3.46587 11.7676 3.13794 12.0955 3.13794 12.5C3.13794 12.9045 3.46587 13.2324 3.87036 13.2324H15.0257C15.3324 14.1433 16.194 14.8014 17.2069 14.8014C18.2199 14.8014 19.0815 14.1433 19.3882 13.2324H21.1295C21.534 13.2324 21.8619 12.9045 21.8619 12.5C21.8619 12.0955 21.534 11.7676 21.1294 11.7676ZM17.2069 13.3366C16.7457 13.3366 16.3704 12.9613 16.3704 12.5C16.3704 12.0387 16.7457 11.6635 17.2069 11.6635C17.6682 11.6635 18.0435 12.0387 18.0435 12.5C18.0435 12.9613 17.6682 13.3366 17.2069 13.3366Z" fill="#414040"/>
<path d="M21.1294 18.0436H13.1122C12.8055 17.1327 11.9439 16.4746 10.9309 16.4746C9.91792 16.4746 9.05635 17.1327 8.74966 18.0436H3.87036C3.46587 18.0436 3.13794 18.3715 3.13794 18.776C3.13794 19.1805 3.46587 19.5084 3.87036 19.5084H8.74966C9.05635 20.4193 9.91792 21.0774 10.9309 21.0774C11.9439 21.0774 12.8055 20.4193 13.1122 19.5084H21.1295C21.534 19.5084 21.8619 19.1805 21.8619 18.776C21.8619 18.3715 21.534 18.0436 21.1294 18.0436ZM10.9309 19.6126C10.4696 19.6126 10.0943 19.2374 10.0943 18.7761C10.0943 18.3148 10.4696 17.9395 10.9309 17.9395C11.3922 17.9395 11.7675 18.3147 11.7675 18.776C11.7675 19.2373 11.3922 19.6126 10.9309 19.6126Z" fill="#414040"/>
</svg>
